<?xml version="1.0" encoding="UTF-8"?>
<svg id="LOGO" xmlns="http://www.w3.org/2000/svg" viewBox="0 0 296.78 166.66">
  <defs>
    <style>
      .cls-1 {
        stroke: #fff;
        stroke-miterlimit: 10;
        stroke-width: 3px;
      }

      .cls-2 {
        fill: #1a1a1a;
      }

      .cls-2, .cls-3, .cls-4 {
        stroke-width: 0px;
      }

      .cls-3 {
        fill: #fff;
      }

      .cls-4 {
        fill: #e92323;
      }
    </style>
  </defs>
  <g>
    <path class="cls-3" d="m20.72,62.97c3.91-1.45,9.8-3.1,16.49-4.38,8.25-1.57,14.27-1.41,18.84.98,3.82,2,6.39,5.56,7.37,10.68,1.34,7.05-2.76,12.91-7.22,15.54l.05.26c4.15.82,7.03,4.1,9.4,8.94,2.92,5.97,5.98,12.9,7.48,14.84l-12.88,2.45c-1.16-1.45-3.4-5.65-6.29-12.23-2.87-6.66-5.56-8.07-10.75-7.15l-3.74.71,4.16,21.84-12.46,2.37-10.44-54.85Zm17.01,21.55l4.92-.94c6.24-1.19,9.37-5.08,8.45-9.91-.97-5.09-4.95-7.03-10.7-5.97-3.01.57-4.74,1.11-5.58,1.5l2.92,15.32Z"/>
    <path class="cls-3" d="m121.1,71.32c3.47,18.25-5.44,31.37-21.71,34.46-16.49,3.14-28.57-7.49-31.59-23.35-3.16-16.63,5.16-31.13,21.54-34.25,17.07-3.25,28.83,7.75,31.76,23.14Zm-40.05,8.34c2.07,10.9,8.67,17.6,17.06,16,8.5-1.62,11.83-10.58,9.77-21.39-1.91-10.03-8.28-17.68-16.93-16.04-8.52,1.62-11.96,10.61-9.91,21.43Z"/>
    <path class="cls-3" d="m176.14,60.85c3.47,18.25-5.44,31.37-21.71,34.46-16.49,3.14-28.57-7.49-31.59-23.35-3.16-16.63,5.16-31.13,21.54-34.25,17.07-3.25,28.83,7.75,31.76,23.14Zm-40.05,8.34c2.07,10.9,8.67,17.6,17.06,16,8.5-1.62,11.83-10.58,9.77-21.39-1.91-10.03-8.28-17.69-16.93-16.04-8.52,1.62-11.97,10.61-9.91,21.42Z"/>
    <path class="cls-3" d="m228.67,58.2c-1.54-6.69-3.32-14.66-4.84-22.82l-.23.04c-.42,7.46-1.25,15.81-2.09,22.77l-2.69,22.98-9.77,1.86-10.08-20.35c-3.04-6.21-6.39-13.76-9.16-20.83l-.17.03c1.17,7.62,2.49,16.26,3.47,23.25l2.98,21.3-11.63,2.21-7.02-56.29,16.76-3.19,8.96,17.56c2.97,6.04,6.02,12.71,8.5,18.99l.27-.05c.3-6.73.78-14.42,1.49-20.98l2.39-19.63,16.45-3.13,13.57,55.05-12.22,2.33-4.91-21.11Z"/>
    <path class="cls-3" d="m249.34,62.86c3.67,1.15,9.23,1.86,14.61.84,5.78-1.1,8.38-4.08,7.68-7.74-.65-3.42-3.69-4.92-10.79-6-9.9-1.52-16.93-5.43-18.48-13.55-1.8-9.48,4.79-18.21,17.86-20.7,6.34-1.21,11.16-.82,14.73.1l-.86,10.61c-2.41-.63-6.71-1.46-12.11-.43-5.48,1.04-7.61,4.07-7.07,6.92.67,3.53,4.05,4.51,11.78,5.86,10.55,1.81,16.08,6.05,17.58,13.91,1.77,9.29-3.83,18.61-19.14,21.52-6.3,1.2-12.94.68-16.37-.47l.57-10.87Z"/>
  </g>
  <g>
    <path class="cls-3" d="m38.63,121.69l5.97,31.39-7.1,1.35-5.97-31.39,7.1-1.35Z"/>
    <path class="cls-3" d="m48.45,152.35l-5.97-31.39,8.27-1.57,8.71,10.27c2.51,2.93,5.09,6.51,7.18,9.79l.12-.04c-1.23-4.07-2.17-8.26-3.07-13.01l-1.74-9.15,6.52-1.24,5.97,31.39-7.44,1.41-9.03-10.81c-2.52-3.03-5.34-6.66-7.56-10.05l-.15.04c1.01,4.12,1.95,8.54,2.92,13.67l1.79,9.44-6.52,1.24Z"/>
    <path class="cls-3" d="m84.74,119.09l-8.47,1.61-1.13-5.96,24.16-4.6,1.13,5.96-8.59,1.63,4.84,25.43-7.1,1.35-4.84-25.43Z"/>
    <path class="cls-3" d="m107.84,108.52l2.3,12.07,11.7-2.23-2.3-12.07,7.1-1.35,5.97,31.39-7.1,1.35-2.5-13.14-11.7,2.23,2.5,13.14-7.1,1.35-5.97-31.39,7.1-1.35Z"/>
    <path class="cls-3" d="m152.59,118.77l-11.55,2.2,1.42,7.47,12.91-2.46,1.11,5.81-20.01,3.81-5.97-31.39,19.34-3.68,1.11,5.81-12.24,2.33,1.24,6.54,11.55-2.2,1.1,5.76Z"/>
  </g>
  <g>
    <path class="cls-4" d="m184.94,94.21c1.8-.72,5.48-1.74,9.03-2.42,4.33-.82,7.07-.9,9.62,0,2.42.75,4.37,2.6,4.92,5.48.53,2.76-.6,5.67-3.88,7.66l.02.12c3.76.26,6.95,2.49,7.71,6.5.55,2.87-.35,5.37-2,7.29-1.95,2.29-5.55,4.02-11.8,5.2-3.5.67-6.12.93-7.76,1l-5.87-30.82Zm9.32,10.68l2.3-.44c3.76-.72,5.43-2.65,4.98-4.98-.45-2.38-2.5-3.3-5.71-2.69-1.55.3-2.41.56-2.97.79l1.39,7.32Zm2.64,13.89c.7-.01,1.55-.16,2.75-.39,3.22-.61,5.82-2.4,5.19-5.7-.6-3.14-3.65-3.86-7.19-3.19l-2.43.46,1.68,8.83Z"/>
    <path class="cls-4" d="m222.18,110.85l-.68,8.48-7.34,1.4,3.61-33.21,9.29-1.77,15.75,29.53-7.65,1.46-3.95-7.6-9.03,1.72Zm6.97-6.8l-3.22-6.3c-.89-1.75-1.9-4-2.73-5.74l-.1.02c-.11,1.93-.13,4.41-.29,6.33l-.61,7.02,6.95-1.32Z"/>
    <path class="cls-4" d="m266.36,109.9c-1.15.87-3.99,2.16-7.77,2.88-10.87,2.07-17.76-3.66-19.47-12.61-2.04-10.7,4.51-18.09,13.98-19.89,3.69-.7,6.63-.52,7.99-.08l-.38,5.89c-1.53-.35-3.65-.53-6.19-.04-5.6,1.07-9.34,5.31-8.01,12.29,1.2,6.29,5.66,9.54,11.98,8.34,2.18-.41,4.45-1.29,5.74-2.14l2.12,5.37Z"/>
    <path class="cls-4" d="m262.91,78.93l7.03-1.34,2.64,13.88.12-.02c.46-1.32,1-2.6,1.5-3.83l5.12-11.81,8.72-1.66-7.84,15.33,14.36,15.95-8.26,1.57-10.3-12.06-2.04,3.79,1.95,10.25-7.03,1.34-5.97-31.39Z"/>
  </g>
  <rect class="cls-1" x="161.54" y="98.69" width="15.85" height="29.03" transform="translate(-18.17 33.67) rotate(-10.77)"/>
  <polygon class="cls-3" points="169.17 123.94 164.85 127.52 159.79 100.91 165.12 102.65 169.17 123.94"/>
  <ellipse class="cls-2" cx="166" cy="114.35" rx=".83" ry="1.63" transform="translate(-18.45 33.04) rotate(-10.77)"/>
</svg>